<svg width="34" height="34" viewBox="0 0 34 34" fill="none" xmlns="http://www.w3.org/2000/svg">
<path fill-rule="evenodd" clip-rule="evenodd" d="M17 2.83334C9.18004 2.83334 2.83337 9.18001 2.83337 17C2.83337 24.82 9.18004 31.1667 17 31.1667C24.82 31.1667 31.1667 24.82 31.1667 17C31.1667 9.18001 24.82 2.83334 17 2.83334ZM17 7.08334C19.3517 7.08334 21.25 8.98168 21.25 11.3333C21.25 13.685 19.3517 15.5833 17 15.5833C14.6484 15.5833 12.75 13.685 12.75 11.3333C12.75 8.98168 14.6484 7.08334 17 7.08334ZM8.50004 22.6383C10.3275 25.3867 13.4584 27.2 17 27.2C20.5417 27.2 23.6725 25.3867 25.5 22.6383C25.4575 19.8192 19.8192 18.275 17 18.275C14.1667 18.275 8.54254 19.8192 8.50004 22.6383Z" fill="white"/>
</svg>
