<svg width="63" height="28" viewBox="0 0 63 28" fill="none" xmlns="http://www.w3.org/2000/svg">
<path fill-rule="evenodd" clip-rule="evenodd" d="M45.0264 9.98286L51.0281 3.9812C51.6564 3.34203 52.6747 3.34203 53.3139 3.97036C53.7039 4.36036 53.8664 4.91286 53.7581 5.45453L52.7289 10.4162H58.8497C61.1789 10.4162 62.7497 12.7995 61.8397 14.9445L58.3081 23.1887C57.9614 23.9795 57.1814 24.4995 56.3147 24.4995H46.5647C45.3731 24.4995 44.3981 23.5245 44.3981 22.3329V11.5104C44.3981 10.9362 44.6256 10.3837 45.0264 9.98286ZM42.2314 22.3329C42.2314 23.5245 41.2564 24.4995 40.0647 24.4995C38.8731 24.4995 37.8981 23.5245 37.8981 22.3329V13.6662C37.8981 12.4745 38.8731 11.4995 40.0647 11.4995C41.2564 11.4995 42.2314 12.4745 42.2314 13.6662V22.3329Z" fill="white"/>
<path fill-rule="evenodd" clip-rule="evenodd" d="M19.3415 18.3261L12.8898 24.7895C12.2132 25.4778 11.1165 25.4778 10.4282 24.8011C10.0082 24.3811 9.83316 23.7861 9.94983 23.2028L11.0582 17.8595H4.4665C1.95816 17.8595 0.266497 15.2928 1.25816 12.9828L5.0615 4.10448C5.42316 3.25281 6.26316 2.69281 7.1965 2.69281H17.6848C18.9682 2.69281 20.0182 3.74281 20.0182 5.02614V16.6811C20.0182 17.2995 19.7732 17.8945 19.3415 18.3261ZM22.3632 5.02614C22.3632 3.74281 23.4132 2.69281 24.6965 2.69281C25.9798 2.69281 27.0298 3.74281 27.0298 5.02614V14.3595C27.0298 15.6428 25.9798 16.6928 24.6965 16.6928C23.4132 16.6928 22.3632 15.6428 22.3632 14.3595V5.02614Z" fill="white"/>
</svg>
