<svg width="34" height="34" viewBox="0 0 34 34" fill="none" xmlns="http://www.w3.org/2000/svg">
<path fill-rule="evenodd" clip-rule="evenodd" d="M26.9167 5.66668H20.995C20.4 4.02334 18.8417 2.83334 17 2.83334C15.1583 2.83334 13.6 4.02334 13.005 5.66668H7.08333C5.525 5.66668 4.25 6.94168 4.25 8.50001V28.3333C4.25 29.8917 5.525 31.1667 7.08333 31.1667H26.9167C28.475 31.1667 29.75 29.8917 29.75 28.3333V8.50001C29.75 6.94168 28.475 5.66668 26.9167 5.66668ZM17 5.66668C17.7792 5.66668 18.4167 6.30418 18.4167 7.08334C18.4167 7.86251 17.7792 8.50001 17 8.50001C16.2208 8.50001 15.5833 7.86251 15.5833 7.08334C15.5833 6.30418 16.2208 5.66668 17 5.66668ZM11.3333 25.5H18.4167C19.1958 25.5 19.8333 24.8625 19.8333 24.0833C19.8333 23.3042 19.1958 22.6667 18.4167 22.6667H11.3333C10.5542 22.6667 9.91667 23.3042 9.91667 24.0833C9.91667 24.8625 10.5542 25.5 11.3333 25.5ZM22.6667 19.8333H11.3333C10.5542 19.8333 9.91667 19.1958 9.91667 18.4167C9.91667 17.6375 10.5542 17 11.3333 17H22.6667C23.4458 17 24.0833 17.6375 24.0833 18.4167C24.0833 19.1958 23.4458 19.8333 22.6667 19.8333ZM11.3333 14.1667H22.6667C23.4458 14.1667 24.0833 13.5292 24.0833 12.75C24.0833 11.9708 23.4458 11.3333 22.6667 11.3333H11.3333C10.5542 11.3333 9.91667 11.9708 9.91667 12.75C9.91667 13.5292 10.5542 14.1667 11.3333 14.1667Z" fill="white"/>
</svg>
