<svg width="52" height="100" viewBox="0 0 52 100" fill="none" xmlns="http://www.w3.org/2000/svg">
<path fill-rule="evenodd" clip-rule="evenodd" d="M44.395 44.0484C40.6738 47.7419 27.625 57.7604 27.625 69.3572V74.2002C27.625 79.1196 31.7525 82.3548 32.89 83.4839C34.6612 85.2258 35.75 87.6452 35.75 90.3226C35.75 95.6613 31.395 100 26 100C20.605 100 16.25 95.6613 16.25 90.3226C16.25 87.6452 17.3387 85.2258 19.0938 83.4839C20.2475 82.3548 24.375 79.1196 24.375 74.2002C24.375 69.2809 24.375 69.3572 24.375 69.3572C24.375 57.7604 11.3262 47.7419 7.605 44.0484C2.90875 39.3871 0 32.9355 0 25.8065C0 11.5484 11.6187 0.016129 26 0C40.3813 0.016129 52 11.5484 52 25.8065C52 32.9355 49.0913 39.3871 44.395 44.0484Z" fill="black"/>
</svg>
